<svg width="820" height="220" viewBox="0 0 820 220" fill="none" xmlns="http://www.w3.org/2000/svg" role="img" aria-label="Keepsy logo">
  <defs>
    <linearGradient id="keepsyGradient" x1="40" y1="180" x2="760" y2="40" gradientUnits="userSpaceOnUse">
      <stop offset="0%" stop-color="#5FA8E8"/>
      <stop offset="35%" stop-color="#88C6D8"/>
      <stop offset="62%" stop-color="#F2B287"/>
      <stop offset="100%" stop-color="#9F82C7"/>
    </linearGradient>
  </defs>
  <rect x="24" y="40" width="230" height="140" rx="34" fill="url(#keepsyGradient)"/>
  <rect x="74" y="22" width="52" height="24" rx="10" fill="url(#keepsyGradient)"/>
  <circle cx="138" cy="110" r="48" fill="#F7F1EB"/>
  <circle cx="138" cy="110" r="31" fill="url(#keepsyGradient)"/>
  <circle cx="214" cy="80" r="11" fill="#F7F1EB"/>
  <g fill="url(#keepsyGradient)">
    <path d="M305 63h33v47l45-47h42l-51 53 54 64h-43l-37-46-10 10v36h-33z"/>
    <path d="M436 120c0-35 26-60 61-60 36 0 60 24 60 60v8h-87c3 14 14 23 30 23 12 0 21-4 28-12l23 18c-11 15-29 24-52 24-38 0-63-25-63-61zm32-13h55c-2-12-12-21-27-21-14 0-25 8-28 21z"/>
    <path d="M562 120c0-35 26-60 61-60 36 0 60 24 60 60v8h-87c3 14 14 23 30 23 12 0 21-4 28-12l23 18c-11 15-29 24-52 24-38 0-63-25-63-61zm32-13h55c-2-12-12-21-27-21-14 0-25 8-28 21z"/>
    <path d="M695 63h33v13c9-10 21-16 36-16 29 0 53 24 53 60s-24 60-53 60c-15 0-27-6-36-16v54h-33zm89 57c0-19-12-31-28-31-17 0-28 12-28 31s11 31 28 31c16 0 28-12 28-31z"/>
    <path d="M318 201l11-25c6 4 15 6 23 6 10 0 16-4 22-16l1-2-49-101h34l31 65 31-65h33l-47 98c-15 33-32 43-56 43-14 0-27-3-34-8z"/>
  </g>
</svg>
